<?xml version="1.0" encoding="UTF-8" standalone="no"?>
<!-- Created with Inkscape (http://www.inkscape.org/) -->

<svg
   xmlns:dc="http://purl.org/dc/elements/1.1/"
   xmlns:cc="http://creativecommons.org/ns#"
   xmlns:rdf="http://www.w3.org/1999/02/22-rdf-syntax-ns#"
   xmlns:svg="http://www.w3.org/2000/svg"
   xmlns="http://www.w3.org/2000/svg"
   version="1.1"
   width="73.237907"
   height="102.46296"
   viewBox="5 -10 73.237907 138.325"
   id="Layer_1"
   xml:space="preserve"><metadata
     id="metadata23"><rdf:RDF><cc:Work
         rdf:about=""><dc:format>image/svg+xml</dc:format><dc:type
           rdf:resource="http://purl.org/dc/dcmitype/StillImage" /><dc:title></dc:title></cc:Work></rdf:RDF></metadata><defs
     id="defs21" /><g
     transform="translate(-8.380635,9.2500007)"
     id="g3"><g
       id="g5"><circle
         cx="51.580002"
         cy="10.115"
         r="9.1149998"
         id="circle7" /><path
         d="m 79.096,92.863 0,0 V 92.861 C 78.996,92.334 70.592,68.942 70.592,68.942 L 57.896,56.014 c 0,0 0,-20.281 0,-26.242 0,-5.961 -10.813,-9.854 -12.078,-8.98 -0.83,0.573 -19.848,12.377 -19.848,12.377 l -2.017,20.082 c -0.025,0.185 -0.042,0.37 -0.042,0.561 0,2.266 1.837,4.103 4.103,4.103 2.266,0 4.103,-1.837 4.103,-4.103 l 1.697,-15.293 9.45,-5.503 v 22.922 l 17.341,16.721 8.85,22.927 0,0 c 0.723,1.893 2.551,3.239 4.697,3.239 2.779,0 5.033,-2.254 5.033,-5.031 0.001,-0.319 0.001,-0.46 -0.089,-0.931 z"
         id="path9" /><path
         d="m 22.017,89.604 c -0.749,0.879 -1.203,2.016 -1.203,3.26 0,2.778 2.254,5.032 5.032,5.032 1.776,0 3.333,-0.922 4.229,-2.312 L 45.466,75.674 50.2,65.208 42.417,57.914 36.664,69.653 22.017,89.604 z"
         id="path11" /><path
         d="m 60.141,40.145 c 0,0 -0.154,11.303 0,11.07 0.135,-0.203 5.691,4.408 7.121,5.6 0.105,0.099 0.215,0.19 0.33,0.277 0.002,0 0.004,0.002 0.004,0.002 l 0,0 c 0.684,0.514 1.533,0.82 2.455,0.82 2.264,0 4.102,-1.837 4.102,-4.103 0,-1.527 -0.83,-2.469 -2.076,-3.563 L 60.141,40.145 z"
         id="path13" /></g></g></svg>